<svg xmlns="http://www.w3.org/2000/svg" width="64" height="21" viewBox="0 0 64 21" fill="none"><g clip-path="url(#clip0_104_522)"><path fill-rule="evenodd" clip-rule="evenodd" d="M53.2595 13.2118C53.2595 13.4166 53.6923 15.8712 53.7572 16.2623C53.7821 16.4116 53.8268 16.5915 53.8298 16.7286H51.5166L52.3719 14.9541C52.4433 14.812 52.5083 14.6831 52.5837 14.5324L53.0164 13.6344C53.0811 13.5051 53.1608 13.284 53.2594 13.2118H53.2595ZM47.2081 19.6435C47.1695 19.4999 44.7919 15.291 44.5466 14.8276C44.6785 14.6307 44.945 14.3619 45.1094 14.1863C45.1732 14.1179 45.1759 14.096 45.2365 14.0283C45.5384 13.6894 45.9822 13.2207 46.244 12.8816C46.5109 12.5372 46.8345 12.2421 47.0998 11.8997C47.3667 11.5546 47.6871 11.2621 47.9551 10.9173L48.6472 10.1202C48.7069 10.0431 48.7397 10.0234 48.7999 9.95627C48.8808 9.86515 49.0475 9.71285 49.0774 9.59981C48.1069 9.59981 47.1329 9.6077 46.1622 9.59981C45.773 9.59635 45.842 9.59871 45.6602 9.82652L44.2857 11.398C44.2048 11.4797 44.1956 11.503 44.1255 11.5866L42.7649 13.1407C42.5861 13.3317 42.0252 14.0282 41.8854 14.1307C42.0436 13.4515 42.283 11.5568 42.4149 10.7631C42.4769 10.3901 42.5827 9.97629 42.5827 9.59981H39.5409C39.3716 9.59981 39.446 10.1308 39.446 10.2654C39.446 10.7439 39.477 11.2862 39.4006 11.7409C39.2183 12.825 39.0203 13.927 38.8737 15.0162L38.4545 17.6385C38.3958 17.9858 38.0515 19.9546 38.0515 20.2773H41.1882C41.1882 18.507 41.1504 18.7507 41.4195 17.1181C41.4611 16.8656 41.658 15.7971 41.6637 15.5563C41.8489 15.7695 42.1584 16.4294 42.3304 16.7272L43.1513 18.1876C43.3407 18.5152 44.2522 20.1012 44.2931 20.2773H49.7746L50.3661 19.0629C50.4145 18.9582 50.4768 18.6929 50.5981 18.6929H54.1785C54.1785 18.9904 54.3618 19.9763 54.4317 20.2773H57.2833C57.2127 20.1299 55.4222 11.0829 55.2107 10.025C55.185 9.89684 55.1582 9.41016 55.0021 9.41016H52.6576C52.5299 9.41016 52.3355 9.86404 52.2773 9.98008L48.4116 17.394C48.3549 17.5089 48.3051 17.6082 48.2431 17.7318C48.1274 17.9639 48.0178 18.1505 47.9053 18.3761C47.7979 18.5909 47.3451 19.5429 47.2083 19.6434L47.2081 19.6435Z" fill="#E75100"></path><path fill-rule="evenodd" clip-rule="evenodd" d="M6.59037 15.5881C6.59037 15.8072 6.27522 17.6321 6.23249 17.9234L5.95124 19.6699C5.92712 19.8433 5.86169 20.0916 5.86169 20.2773H8.45968C8.45968 18.6537 8.39993 18.9155 8.63578 17.4435L9.76743 10.2745C9.79959 10.0832 9.85366 9.83335 9.85366 9.59986L8.23565 9.59766C7.98467 9.59766 8.01305 9.64117 7.8978 9.79867L5.60771 12.9584C5.53597 13.0609 5.4603 13.167 5.3821 13.271C5.32125 13.3516 5.19623 13.5458 5.13301 13.5923L4.31809 11.6189C4.18125 11.2746 4.05166 10.9696 3.91513 10.6276C3.84292 10.4473 3.78743 10.3079 3.71632 10.1299C3.64822 9.95979 3.55725 9.77281 3.51721 9.60002H1.39423C1.39423 11.056 1.46044 11.0136 1.22223 12.4381C1.07561 13.3158 0.952006 14.1544 0.809801 15.0358C0.666966 15.9248 0.529333 16.746 0.39375 17.6294C0.348346 17.9242 0.000244141 20.0442 0.000244141 20.2777H2.59792C2.59792 19.1823 2.53439 18.8123 2.7067 17.7881L3.01854 15.8507C3.03778 15.7274 3.01586 15.6538 3.1051 15.5884C3.11865 15.7528 3.28545 16.1772 3.34662 16.3609L4.1505 18.6932H4.53077C4.56624 18.5599 6.1204 16.277 6.31778 15.9814L6.59021 15.5884L6.59037 15.5881Z" fill="#E75100"></path><path fill-rule="evenodd" clip-rule="evenodd" d="M23.6043 14.9544C23.6153 14.8213 23.6522 14.669 23.6768 14.52C23.8088 13.7194 24.0427 12.3497 24.135 11.5883C24.1667 11.327 24.1014 11.406 25.1883 11.406C25.9381 11.406 26.519 12.2142 26.519 12.9583C26.519 13.3657 26.4582 13.6523 26.1891 14.0226C26.0171 14.2593 25.8312 14.4429 25.6002 14.6061C25.003 15.0294 24.3514 14.9542 23.6043 14.9542V14.9544ZM19.8974 20.2774H23.0658C23.0658 19.136 23.0019 18.7281 23.1829 17.6381C23.2086 17.4834 23.2308 17.3368 23.2502 17.1986C23.2721 17.0414 23.316 16.8691 23.319 16.7288C24.1339 16.7288 24.1542 16.6457 24.2805 16.9075C24.3308 17.0119 24.3546 17.0376 24.4063 17.1305L26.1706 20.2772H29.4339C29.3455 20.1101 29.2435 19.9389 29.147 19.772C29.0997 19.69 29.0499 19.5992 28.9961 19.5107C28.9387 19.415 28.9092 19.3441 28.8503 19.2451L27.0894 16.0948C27.5457 15.9731 28.3253 15.2074 28.6519 14.806C28.8632 14.546 29.0507 14.238 29.1807 13.9091C29.7178 12.5537 29.3649 11.3398 28.2517 10.4334C27.9704 10.2044 27.49 9.94361 27.1178 9.8249C26.6775 9.68474 26.1427 9.59961 25.5685 9.59961H21.3864C21.2526 9.59961 21.2877 9.74292 21.2901 9.88386C21.3071 10.9184 21.3136 11.3598 21.1468 12.4018L19.8972 20.2771L19.8974 20.2774Z" fill="#E75100"></path><path fill-rule="evenodd" clip-rule="evenodd" d="M10.5823 16.7921C10.5823 17.3353 10.6661 17.8825 10.8 18.2851C10.9471 18.7281 11.1684 19.0676 11.4327 19.3952C11.4875 19.4628 11.5687 19.5426 11.6353 19.6042C12.1867 20.1141 13.0485 20.4675 13.8142 20.4675C15.0032 20.4675 15.8922 20.1825 16.7879 19.5125C17.2512 19.1659 17.7324 18.6417 18.0264 18.153C18.2698 17.7486 18.5287 17.2058 18.6618 16.6975C18.966 15.5353 19.3206 12.7139 19.5394 11.3967L19.8339 9.59992L16.76 9.59961C16.6152 9.62988 16.6637 9.76672 16.6651 9.9485C16.6707 10.5063 16.707 11.1572 16.6356 11.6614C16.5631 12.1743 16.4817 12.6732 16.3941 13.194C16.2213 14.2183 16.0789 15.2331 15.9145 16.2312C15.7746 17.0813 15.4262 18.2181 14.3846 18.2181C13.3381 18.2181 13.3138 17.1886 13.4246 16.4346L14.4795 9.60008H11.4377C11.2938 9.60008 11.3417 9.8249 11.3428 9.98034C11.3501 11.234 11.4071 11.1025 11.2022 12.3746L10.6628 15.859C10.6182 16.1387 10.5823 16.4981 10.5823 16.7924V16.7921Z" fill="#E75100"></path><path fill-rule="evenodd" clip-rule="evenodd" d="M57.9167 12.1976C57.9427 12.1008 58.5377 11.4568 58.6457 10.9937C58.7901 11.0059 59.2478 11.2799 59.4073 11.3724C60.0979 11.7735 61.556 12.3743 61.9593 13.0343C62.4362 13.8151 61.949 14.4789 61.6236 14.4789C60.8885 14.4789 60.8395 14.4883 60.2166 14.0801C59.4376 13.5695 58.9538 13.22 58.2735 12.5384L57.9167 12.1976ZM58.9307 8.55419C59.3034 8.54583 61.1524 8.14224 61.9721 8.14224C62.2885 8.14224 62.7064 8.25937 62.8825 8.4041C63.2366 8.69482 63.4343 9.11765 63.2076 9.56775C63.1002 9.7809 63.1029 9.93777 62.7223 10.1279C62.3202 10.3286 62.2241 10.4235 61.6236 10.4235C60.6618 10.4235 60.5842 10.4613 59.65 10.3381C59.3884 10.3032 59.1284 10.287 58.8989 10.2334C58.94 9.73676 58.9941 9.8468 58.9941 9.12443C58.9941 8.88968 58.9563 8.75362 58.9306 8.55403L58.9307 8.55419ZM46.9863 5.41749C46.9863 5.07696 47.2717 4.46699 47.6515 4.46699C48.517 4.46699 48.8697 4.84158 49.607 5.39479L50.7114 6.22326C50.8312 6.31328 51.0002 6.41718 51.0735 6.52643C50.8482 6.8624 50.4182 7.38407 50.3762 7.88889C50.2129 7.80233 50.066 7.71736 49.9012 7.63522L48.0103 6.61141C47.6603 6.4383 46.9865 5.84536 46.9865 5.41749H46.9863ZM58.7089 7.79366C58.6659 7.60921 58.3121 6.98032 58.1798 6.80186C58.0997 6.69339 58.0178 6.59769 57.9485 6.49459C58.0294 6.37398 58.8171 5.8173 59.0256 5.67068C59.37 5.42884 59.7948 5.08373 60.1444 4.88872C60.5525 4.66122 60.6697 4.56221 61.212 4.56221C61.6093 4.56221 62.1308 4.94169 62.1308 5.32258C62.1308 5.54172 62.048 5.7142 61.9222 5.90606C61.8205 6.06104 61.7264 6.19252 61.5885 6.30099C61.1855 6.61772 60.7089 6.91174 60.2453 7.14381C60.0581 7.23714 58.8628 7.78105 58.7089 7.7935V7.79366ZM57.3781 5.92435C56.9768 5.65555 56.4994 5.34008 56.016 5.22736L56.4699 4.2242C56.6403 3.88587 56.8032 3.58885 56.9665 3.26314C57.2519 2.69243 57.6219 1.83747 58.4552 1.83747C59.3283 1.83747 59.2792 2.34385 59.2792 2.78797C59.2792 3.40471 58.4053 4.68219 57.9586 5.23745L57.3781 5.92419V5.92435ZM49.9011 2.43923C49.9011 1.9237 50.5489 1.51664 50.9446 1.61612C51.677 1.79947 52.1276 3.16539 52.4349 3.86601C52.5298 4.08294 52.6099 4.28584 52.71 4.50971L52.9742 5.19567C52.8155 5.20891 52.3978 5.42616 52.2709 5.50593C52.0499 5.64467 51.8687 5.80532 51.6439 5.92435C51.6122 5.80564 50.7768 4.52784 50.6424 4.32794L50.1544 3.5168C50.0073 3.22546 49.9012 2.87688 49.9012 2.43923H49.9011ZM55.6041 1.90069L55.5724 2.75644C55.5651 2.89628 55.5445 2.88792 55.5407 3.041L55.4406 4.14506C55.3367 5.12094 55.4708 5.0563 55.176 4.99434C54.9848 4.9543 54.8396 4.95383 54.6402 4.92371L53.8615 4.94263C53.8615 4.61566 53.8082 4.36735 53.7984 4.05551C53.7754 3.32793 53.5826 2.62464 53.6794 1.87704C53.7165 1.59137 53.8911 1.01151 54.1087 0.848971C54.2988 0.707239 54.9391 0.572287 55.2304 0.817282C55.5036 1.04635 55.6042 1.51191 55.6042 1.90084L55.6041 1.90069ZM53.1013 1.77409C53.1013 2.79348 53.1889 2.73894 53.3889 3.70426C53.4656 4.07459 53.6066 4.64041 53.7664 4.97416L53.2139 5.09398C53.0724 5.13513 53.1152 5.15831 53.0762 5.06419L52.7341 3.56678C52.6011 2.95681 52.5221 2.73862 52.3048 2.15845C51.8955 1.06764 50.7688 0.487153 49.7642 1.3522C49.4959 1.58348 49.2359 1.89233 49.2359 2.28079C49.2359 3.24343 49.6619 3.89013 50.1158 4.41055C50.3633 4.6948 50.5599 4.95178 50.8279 5.21932C51.0132 5.40456 51.4592 5.80658 51.5804 5.98773L51.1368 6.43137C50.992 6.21475 50.6794 5.875 50.4954 5.67841C50.438 5.61677 50.4138 5.60242 50.3583 5.53069L49.5139 4.66437C49.3245 4.47692 49.097 4.30981 48.875 4.16208C48.3176 3.79097 47.4172 3.58759 46.8348 4.1572C46.3756 4.60651 46.1337 5.46573 46.5165 6.04543C46.7989 6.4733 47.1727 6.75708 47.5936 7.02777C47.8843 7.21444 49.2687 7.67526 49.692 7.78105C49.8602 7.82299 50.2265 7.89519 50.3444 7.95195C50.2813 8.0839 50.2276 8.438 50.1986 8.62955C50.1593 8.88731 50.1861 9.17614 50.1861 9.441C50.293 9.3628 50.2272 9.45124 50.2567 9.28981C50.3855 8.58036 50.4834 8.28791 50.8199 7.63553C51.095 7.10219 51.5288 6.67021 52.0192 6.33126C53.1458 5.55197 54.4248 5.44035 55.7196 5.87201C56.4978 6.13167 57.1956 6.61503 57.6574 7.29279C58.0236 7.82913 58.2843 8.41577 58.3793 9.07366C58.4764 9.74495 58.3682 10.646 58.0863 11.2264C57.9597 11.4877 57.8478 11.8085 57.64 12.0157C57.5962 12.0592 57.5629 12.0811 57.5334 12.1314C57.4824 12.2195 57.5286 12.1888 57.4639 12.2837C57.2511 12.5974 56.6176 12.998 56.5862 13.1162C56.9998 12.8974 57.3592 12.6865 57.7163 12.3773C57.804 12.3018 57.7707 12.2916 57.8853 12.261C58.2243 12.9015 58.746 13.5241 59.255 14.028C59.5025 14.2728 59.8401 14.5011 60.1206 14.7147C60.6115 15.0888 61.0186 15.1445 61.6555 15.1445C62.8426 15.1445 63.4293 13.1194 61.8841 12.0959C61.1901 11.6363 60.2155 11.3448 59.4184 11.0765C59.2861 11.0319 58.8352 10.9015 58.7089 10.8985C58.7324 10.7979 58.7611 10.7383 58.7909 10.6321C58.8204 10.5285 58.829 10.4401 58.8672 10.36C58.993 10.3894 59.0777 10.4268 59.1975 10.4733C59.5316 10.6029 59.8385 10.7257 60.2112 10.7904C61.1754 10.9578 61.127 10.9619 62.1939 10.9619C62.6558 10.9619 63.0851 10.6977 63.417 10.4423C63.6479 10.2646 64.0001 9.63081 64.0001 9.25102C64.0001 8.68599 63.6392 8.09147 63.1754 7.82614C62.2645 7.30572 61.3337 7.65004 60.4198 7.88889C60.1352 7.9633 59.934 8.04764 59.6684 8.15154C59.428 8.24566 59.145 8.37005 58.8989 8.42743C58.8823 8.22753 58.787 8.09857 58.7723 7.92057C58.9473 7.90591 59.3154 7.8378 59.4764 7.80076C59.7119 7.74637 59.8956 7.6863 60.1283 7.62923C60.4635 7.54677 60.7182 7.42065 61.0312 7.29626C61.4542 7.12804 61.9965 6.80863 62.2965 6.47078C62.6933 6.02399 63.0255 5.29499 62.656 4.73374C62.3449 4.26125 61.868 3.89659 61.2118 3.89659C60.3663 3.89659 59.7193 4.45217 59.2869 4.88682C58.7702 5.40645 58.5431 5.54487 58.0389 6.17344C57.9618 6.26977 57.9602 6.29626 57.8533 6.36815C57.7721 6.31376 57.4984 6.08311 57.4731 5.98788C57.6069 5.95241 57.967 5.65492 58.0827 5.55213C58.3805 5.28758 58.7559 4.94169 58.9943 4.62622L59.6061 3.78072C59.9596 3.2108 60.1784 2.04746 59.5555 1.52925C59.4595 1.44948 59.2937 1.34511 59.1801 1.30254C58.1899 0.929532 57.3509 1.39067 56.8524 2.23113C56.4983 2.82833 56.1278 4.1099 55.9703 4.83417C55.8599 5.34103 55.94 5.10518 55.5084 5.06923C55.5118 4.9234 55.5658 4.79176 55.5968 4.68219C55.6376 4.53699 55.6674 4.43467 55.7098 4.28837L55.9271 3.52374C56.0715 2.95792 56.2057 2.17075 56.2057 1.55227C56.2057 0.793319 55.6547 0 54.8114 0C54.4289 0 54.0654 0.0755166 53.78 0.267225C53.3688 0.542805 53.1008 1.20338 53.1008 1.77409H53.1013Z" fill="#E65100"></path><path fill-rule="evenodd" clip-rule="evenodd" d="M31.2715 11.3105C31.2715 11.4692 31.7946 11.4057 32.0954 11.4057C32.4121 11.4057 32.7288 11.4057 33.0455 11.4057C32.9117 11.9805 32.5917 14.2827 32.4846 14.9317C32.3859 15.5315 32.2956 16.1283 32.1996 16.7062L31.9364 18.5027H30.1624V20.2772H36.5622V18.5027H34.7881C34.7991 18.3693 34.836 18.2173 34.8606 18.0683L35.897 11.4059H37.6081C37.6811 11.4059 37.703 11.3836 37.703 11.3106V9.69483C37.703 9.62184 37.6811 9.59961 37.6081 9.59961H31.2713V11.3106L31.2715 11.3105Z" fill="#E65100"></path></g><defs><clipPath id="clip0_104_522"><rect width="64.0003" height="20.4673" fill="white"></rect></clipPath></defs></svg>