<?xml version="1.0" encoding="UTF-8"?>
<!DOCTYPE svg PUBLIC "-//W3C//DTD SVG 1.1//EN" "http://www.w3.org/Graphics/SVG/1.1/DTD/svg11.dtd">
<!-- Creator: CorelDRAW 2019 (64-Bit) -->
<svg xmlns="http://www.w3.org/2000/svg" xml:space="preserve" width="88.1192mm" height="28.1802mm" version="1.1" style="shape-rendering:geometricPrecision; text-rendering:geometricPrecision; image-rendering:optimizeQuality; fill-rule:evenodd; clip-rule:evenodd"
viewBox="0 0 12767.09 4082.87"
 xmlns:xlink="http://www.w3.org/1999/xlink"
 xmlns:xodm="http://www.corel.com/coreldraw/odm/2003">
 <defs>
  <style type="text/css">
   <![CDATA[
    .fil1 {fill:none}
    .fil0 {fill:#FEFEFE}
   ]]>
  </style>
   <clipPath id="id0">
    <path d="M-0 4082.87l12767.09 0 0 -4082.87 -12767.09 0 0 4082.87z"/>
   </clipPath>
 </defs>
 <g id="Layer_x0020_1">
  <metadata id="CorelCorpID_0Corel-Layer"/>
  <g>
  </g>
  <g style="clip-path:url(#id0)">
   <g>
    <path class="fil0" d="M10624.48 2635.52c0,40.86 86.32,530.48 99.29,608.51 4.98,29.79 13.88,65.68 14.47,93.04l-461.43 0 170.63 -353.98c14.24,-28.35 27.21,-54.07 42.22,-84.15l86.32 -179.15c12.89,-25.77 28.8,-69.89 48.49,-84.28l0 0zm-1207.18 1283.01c-7.69,-28.64 -482.02,-868.26 -530.94,-960.7 26.31,-39.28 79.47,-92.89 112.27,-127.95 12.74,-13.65 13.27,-18.02 25.4,-31.51 60.17,-67.56 148.77,-161.05 200.94,-228.76 53.23,-68.68 117.83,-127.57 170.78,-195.87 53.23,-68.85 117.08,-127.19 170.62,-195.96l138.05 -159.01c11.92,-15.39 18.4,-19.31 30.47,-32.73 16.13,-18.17 49.38,-48.55 55.33,-71.09 -193.61,0 -387.91,1.58 -581.52,0 -77.66,-0.68 -63.86,-0.23 -100.13,45.23l-274.22 313.5c-16.13,16.28 -17.94,20.96 -31.96,37.63l-271.43 310.02c-35.67,38.08 -147.55,177.03 -175.45,197.46 31.6,-135.48 79.32,-513.44 105.64,-671.78 12.37,-74.41 33.48,-156.97 33.48,-232.06l-606.79 0c-33.79,0 -18.94,105.92 -18.94,132.77 0,95.45 6.19,203.65 -9.04,294.35 -36.42,216.31 -75.85,436.09 -105.1,653.38l-83.61 523.1c-11.76,69.28 -80.45,462.02 -80.45,526.41l625.71 0c0,-353.16 -7.53,-304.52 46.15,-630.23 8.29,-50.36 47.58,-263.52 48.78,-311.54 36.95,42.52 98.62,174.17 133,233.58l163.68 291.33c37.86,65.37 219.63,381.73 227.77,416.86l1093.56 0 117.99 -242.25c9.65,-20.88 22.08,-73.82 46.22,-73.82l714.29 0c0,59.34 36.57,256.05 50.52,316.07l568.79 0c-14.02,-29.4 -371.25,-1834.16 -413.4,-2045.2 -5.13,-25.56 -10.48,-122.66 -41.61,-122.66l-467.69 0c-25.49,0 -64.31,90.54 -75.92,113.69l-771.16 1478.98c-11.3,22.92 -21.18,42.74 -33.56,67.4 -23.14,46.29 -45,83.54 -67.4,128.56 -21.41,42.81 -111.73,232.74 -139.03,252.79l-0.07 0z"/>
    <path class="fil0" d="M1314.61 3109.52c0,43.74 -62.81,407.75 -71.4,465.88l-56.1 348.42c-4.74,34.6 -17.86,84.13 -17.86,121.15l518.28 0c0,-323.9 -11.92,-271.64 35.13,-565.32l225.73 -1430.11c6.42,-38.15 17.2,-87.99 17.2,-134.58l-322.77 -0.38c-50.07,0 -44.33,8.66 -67.33,40.03l-456.91 630.39c-14.24,20.43 -29.4,41.54 -45.02,62.36 -12.13,16.05 -37.02,54.81 -49.68,64.08l-162.56 -393.72c-27.28,-68.69 -53.14,-129.53 -80.37,-197.69 -14.4,-35.96 -25.49,-63.78 -39.65,-99.29 -13.58,-33.93 -31.74,-71.25 -39.74,-105.71l-423.5 0c0,290.42 13.2,281.99 -34.31,566.15 -29.25,175.08 -53.91,342.38 -82.25,518.21 -28.5,177.32 -55.95,341.16 -83.02,517.37 -9.04,58.81 -78.48,481.7 -78.48,528.29l518.19 0c0,-218.49 -12.66,-292.3 21.72,-496.63l62.2 -386.48c3.85,-24.57 -0.52,-39.28 17.27,-52.32 2.71,32.79 35.96,117.46 48.17,154.1l160.37 465.28 75.85 0c7.08,-26.62 317.12,-482.02 356.47,-540.97l54.36 -78.41 0 -0.09z"/>
    <path class="fil0" d="M4708.65 2983.17c2.19,-26.62 9.58,-57 14.47,-86.71 26.31,-159.69 72.98,-432.93 91.45,-584.84 6.26,-52.1 -6.71,-36.35 210.07,-36.35 149.58,0 265.46,161.2 265.46,309.66 0,81.28 -12.13,138.42 -65.82,212.31 -34.29,47.2 -71.4,83.84 -117.46,116.41 -119.12,84.44 -249.11,69.44 -398.17,69.44l0 0.07zm-739.42 1061.8l632.06 0c0,-227.7 -12.75,-309.05 23.3,-526.49 5.11,-30.83 9.58,-60.08 13.42,-87.68 4.38,-31.37 13.2,-65.66 13.79,-93.71 162.56,0 166.56,-16.59 191.74,35.66 10.1,20.82 14.85,25.93 25.11,44.49l351.94 627.74 651.05 0c-17.65,-33.32 -38,-67.47 -57.3,-100.8 -9.42,-16.37 -19.3,-34.47 -30.08,-52.1 -11.46,-19.08 -17.34,-33.25 -29.11,-53.01l-351.27 -628.42c91.07,-24.28 246.55,-177.03 311.69,-257.1 42.22,-51.88 79.61,-113.33 105.56,-178.92 107.13,-270.37 36.71,-512.54 -185.34,-693.34 -56.17,-45.7 -152,-97.72 -226.18,-121.4 -87.84,-27.96 -194.52,-44.93 -309.13,-44.93l-834.27 0c-26.69,0 -19.68,28.57 -19.23,56.69 3.4,206.36 4.75,294.42 -28.57,502.3l-249.26 1571.02 0.07 0z"/>
    <path class="fil0" d="M2110.95 3349.74c0,108.34 16.73,217.51 43.42,297.81 29.41,88.36 73.51,156.08 126.22,221.44 10.92,13.5 27.14,29.41 40.41,41.7 110,101.71 281.9,172.21 434.65,172.21 237.2,0 414.53,-56.85 593.23,-190.45 92.44,-69.14 188.41,-173.72 247.07,-271.21 48.55,-80.67 100.2,-189.02 126.74,-290.35 60.69,-231.84 131.41,-794.68 175.06,-1057.44l58.81 -358.43 -613.27 -0.07c-28.89,6.03 -19.15,33.32 -18.94,69.59 1.13,111.29 8.37,241.12 -5.88,341.7 -14.39,102.32 -30.69,201.84 -48.17,305.73 -34.45,204.33 -62.88,406.76 -95.68,605.88 -27.89,169.57 -97.41,396.36 -305.13,396.36 -208.76,0 -213.68,-205.37 -191.51,-355.79l210.43 -1363.39 -606.79 0c-28.72,0 -19.14,44.86 -18.99,75.85 1.51,250.1 12.89,223.86 -28.05,477.64l-107.59 695.08c-8.9,55.79 -16.05,127.48 -16.05,186.22l0 -0.07z"/>
    <path class="fil0" d="M11553.51 2433.22c5.2,-19.37 123.88,-147.77 145.43,-240.2 28.8,2.49 120.11,57.07 151.93,75.54 137.76,79.99 428.63,199.88 509.08,331.52 95.15,155.77 -2.04,288.23 -66.95,288.23 -146.65,0 -156.37,1.81 -280.7,-79.61 -155.39,-101.87 -251.9,-171.53 -387.61,-307.55l-71.18 -67.94zm202.29 -726.81c74.34,-1.67 443.19,-82.18 606.72,-82.18 63.11,0 146.49,23.37 181.63,52.25 70.65,57.98 110.08,142.35 64.84,232.08 -21.4,42.52 -20.88,73.8 -96.8,111.73 -80.22,40.1 -99.38,59.03 -219.18,59.03 -191.88,0 -207.34,7.55 -393.72,-17.04 -52.17,-7.01 -104.04,-10.24 -149.81,-20.88 8.21,-99.07 18.99,-77.14 18.99,-221.3 0,-46.81 -7.53,-73.96 -12.66,-113.76l0 0.07zm-2382.75 -625.71c0,-67.94 56.93,-189.62 132.7,-189.62 172.66,0 243,74.72 390.1,185.02l220.31 165.27c23.91,18.02 57.61,38.76 72.22,60.55 -44.93,67.02 -130.73,171.08 -139.1,271.73 -32.57,-17.27 -61.82,-34.16 -94.7,-50.59l-377.21 -204.24c-69.82,-34.54 -204.26,-152.75 -204.26,-238.1l-0.07 0zm2338.49 473.93c-8.52,-36.79 -79.16,-162.17 -105.55,-197.84 -15.98,-21.63 -32.27,-40.71 -46.15,-61.29 16.14,-24.05 173.34,-135.12 214.88,-164.37 68.69,-48.17 153.43,-117.1 223.18,-156 81.42,-45.31 104.79,-65.07 212.99,-65.07 79.24,0 183.29,75.7 183.29,151.62 0,43.74 -16.52,78.19 -41.63,116.41 -20.28,30.92 -39.06,57.16 -66.57,78.79 -80.37,63.18 -175.45,121.85 -267.96,168.14 -37.32,18.62 -275.8,127.12 -306.49,129.6l0 0zm-265.47 -372.83c-80.06,-53.68 -175.3,-116.56 -271.72,-139.1l90.55 -200.1c33.99,-67.49 66.49,-126.74 99.06,-191.74 56.93,-113.85 130.74,-284.39 297,-284.39 174.17,0 164.36,101.03 164.36,189.62 0,123.05 -174.31,377.89 -263.43,488.64l-115.82 137 0 0.07zm-1491.55 -695.23c0,-102.84 129.22,-184.05 208.17,-164.21 146.12,36.57 235.99,309.05 297.29,448.84 18.92,43.28 34.9,83.69 54.88,128.4l52.71 136.84c-31.67,2.64 -114.98,45.91 -140.32,61.89 -44.03,27.67 -80.22,59.72 -125.08,83.47 -6.26,-23.67 -172.96,-278.58 -199.72,-318.47l-97.33 -161.81c-29.41,-58.13 -50.52,-127.72 -50.52,-214.95l-0.07 0zm1137.73 -107.45l-6.35 170.7c-1.51,27.89 -5.58,26.24 -6.33,56.78l-19.98 220.22c-20.73,194.68 6.04,181.79 -52.77,169.41 -38.16,-7.98 -67.11,-8.06 -106.92,-14.1l-155.32 3.77c0,-65.21 -10.62,-114.75 -12.59,-176.95 -4.59,-145.15 -43.05,-285.45 -23.75,-434.58 7.39,-57.01 42.22,-172.66 85.66,-205.08 37.92,-28.28 165.65,-55.19 223.77,-6.33 54.51,45.68 74.57,138.58 74.57,216.15l0 0zm-499.29 -25.25c0,203.35 17.42,192.49 57.3,385.04 15.31,73.82 43.44,186.76 75.33,253.34l-110.23 23.89c-28.19,8.14 -19.68,12.82 -27.44,-5.95l-68.24 -298.72c-26.54,-121.69 -42.29,-165.2 -85.64,-280.93 -81.66,-217.59 -306.42,-333.39 -506.82,-160.89 -53.53,46.15 -105.4,107.82 -105.4,185.25 0,192.04 84.97,321.05 175.53,424.86 49.38,56.71 88.58,107.97 142.04,161.36 37.02,36.95 125.98,117.17 150.11,153.27l-88.45 88.52c-28.88,-43.2 -91.22,-111 -127.95,-150.2 -11.46,-12.29 -16.28,-15.15 -27.37,-29.47l-168.43 -172.82c-37.77,-37.39 -83.16,-70.72 -127.5,-100.2 -111.13,-74.04 -290.8,-114.6 -406.99,-0.97 -91.6,89.64 -139.86,261.02 -63.47,376.67 56.32,85.35 130.89,141.97 214.88,195.96 57.98,37.25 334.16,129.16 418.6,150.27 33.56,8.36 106.61,22.76 130.14,34.08 -12.59,26.31 -23.3,96.96 -29.11,135.18 -7.84,51.43 -2.49,109.03 -2.49,161.88 21.34,-15.6 8.23,2.04 14.11,-30.15 25.7,-141.52 45.23,-199.88 112.33,-330.02 54.9,-106.39 141.45,-192.57 239.23,-260.18 224.76,-155.48 479.9,-177.72 738.21,-91.61 155.24,51.8 294.42,148.23 386.55,283.41 73.07,107 125.08,224.01 144.01,355.27 19.37,133.9 -2.19,313.65 -58.43,429.45 -25.27,52.1 -47.58,116.11 -89.05,157.43 -8.75,8.68 -15.39,13.04 -21.27,23.08 -10.17,17.63 -0.97,11.46 -13.87,30.38 -42.45,62.58 -168.82,142.49 -175.08,166.1 82.48,-43.65 154.19,-85.73 225.44,-147.41 17.49,-15.07 10.85,-17.11 33.7,-23.21 67.63,127.79 171.67,251.97 273.24,352.55 49.39,48.78 116.72,94.32 172.66,136.92 97.94,74.64 179.13,85.8 306.26,85.8 236.74,0 353.84,-404.04 45.54,-608.22 -138.42,-91.68 -332.8,-149.81 -491.81,-203.35 -26.46,-8.9 -116.4,-34.9 -141.6,-35.51 4.68,-20.05 10.42,-31.89 16.37,-53.07 5.88,-20.73 7.61,-38.31 15.23,-54.29 25.11,5.81 41.99,13.27 65.89,22.54 66.65,25.86 127.87,50.36 202.21,63.26 192.33,33.4 182.68,34.24 395.53,34.24 92.13,0 177.77,-52.71 243.97,-103.68 46.07,-35.42 116.34,-161.86 116.34,-237.64 0,-112.72 -72.01,-231.32 -164.52,-284.25 -181.7,-103.82 -367.4,-35.13 -549.72,12.52 -56.77,14.85 -96.88,31.66 -149.88,52.4 -47.96,18.76 -104.42,43.65 -153.5,55.03 -3.32,-39.89 -22.31,-65.59 -25.25,-101.1 34.9,-2.94 108.34,-16.52 140.47,-23.91 46.97,-10.85 83.61,-22.83 130.05,-34.22 66.88,-16.44 117.7,-41.55 180.12,-66.43 84.38,-33.56 192.57,-97.26 252.36,-164.66 79.16,-89.12 145.43,-234.57 71.78,-346.52 -62.05,-94.25 -157.2,-167.01 -288.09,-167.01 -168.66,0 -297.74,110.84 -384,197.54 -103.14,103.68 -148.38,131.34 -248.95,256.73 -15.37,19.21 -15.76,24.5 -37.02,38.83 -16.21,-10.87 -70.79,-56.85 -75.85,-75.86 26.69,-7.08 98.46,-66.41 121.54,-86.93 59.4,-52.77 134.35,-121.76 181.84,-184.71l122.07 -168.66c70.5,-113.71 114.15,-345.77 -10.1,-449.14 -19.15,-15.91 -52.17,-36.71 -74.86,-45.23 -197.55,-74.43 -364.92,17.56 -464.37,185.25 -70.65,119.12 -144.54,374.79 -175.98,519.25 -22.02,101.1 -6.03,54.06 -92.13,46.9 0.68,-29.11 11.46,-55.35 17.65,-77.21 8.14,-28.95 14.1,-49.39 22.53,-78.57l43.36 -152.52c28.8,-112.86 55.56,-269.92 55.56,-393.27 0,-151.39 -109.92,-309.65 -278.13,-309.65 -76.31,0 -148.84,15.08 -205.76,53.3 -82.02,54.97 -135.48,186.76 -135.48,300.61l0.14 0z"/>
    <path class="fil0" d="M6238.21 2256.2c0,31.66 104.36,18.99 164.3,18.99 63.18,0 126.37,0 189.54,0 -26.69,114.68 -90.47,573.92 -111.88,703.44 -19.68,119.66 -37.7,238.71 -56.85,354l-52.48 358.36 -353.91 0 0 353.98 1276.69 0 0 -353.98 -353.91 0c2.17,-26.62 9.56,-56.93 14.47,-86.71l206.74 -1329.01 341.32 0c14.55,0 18.92,-4.45 18.92,-18.99l0 -322.32c0,-14.55 -4.38,-18.99 -18.92,-18.99l-1264.1 0 0 341.32 0.07 -0.07z"/>
   </g>
  </g>
  <polygon class="fil1" points="-0,4082.87 12767.09,4082.87 12767.09,0 -0,0 "/>
 </g>
</svg>
